name C:\Users\u0101727\Documents\MyRepositories\upper-imu-dc\Results\main_tracking\Case_41\FLX01_angularVelocities_groundFrame.mot
datacolumns 4
datarows 82
range 5.01000000 5.82000000
endheader 
time	radius_imu_x	radius_imu_y	radius_imu_z	
          5.01000000	          0.86363930	          0.15153194	         -1.20187128	
          5.02000000	          0.86116064	          0.23652528	         -1.16670725	
          5.03000000	          0.85691889	          0.32396955	         -1.13127060	
          5.04000000	          0.86443307	          0.40759056	         -1.08641007	
          5.05000000	          0.86303852	          0.49453724	         -1.05069480	
          5.06000000	          0.84522605	          0.58315357	         -1.01301128	
          5.07000000	          0.86901327	          0.67156804	         -0.96975424	
          5.08000000	          0.85527512	          0.76614457	         -0.93818190	
          5.09000000	          0.84438764	          0.85410232	         -0.90751238	
          5.10000000	          0.82912279	          0.94019840	         -0.88842956	
          5.11000000	          0.80779961	          1.02170520	         -0.88660651	
          5.12000000	          0.82522108	          1.11268476	         -0.90284390	
          5.13000000	          0.83047633	          1.20696248	         -0.91740536	
          5.14000000	          0.82062699	          1.30569113	         -0.94405938	
          5.15000000	          0.80563902	          1.40501610	         -0.96744566	
          5.16000000	          0.78332314	          1.50663489	         -0.99119793	
          5.17000000	          0.75553763	          1.60944409	         -1.01454593	
          5.18000000	          0.72352255	          1.71273132	         -1.03782297	
          5.19000000	          0.68893178	          1.81534988	         -1.06089620	
          5.20000000	          0.65337257	          1.91631646	         -1.08348524	
          5.21000000	          0.61837496	          2.01464183	         -1.10504717	
          5.22000000	          0.58528861	          2.10933693	         -1.12487221	
          5.23000000	          0.55522100	          2.19947815	         -1.14217739	
          5.24000000	          0.52899019	          2.28428686	         -1.15621939	
          5.25000000	          0.50710564	          2.36317813	         -1.16638880	
          5.26000000	          0.48977402	          2.43577060	         -1.17226832	
          5.27000000	          0.47694143	          2.50186742	         -1.17365611	
          5.28000000	          0.46838462	          2.56141928	         -1.17057797	
          5.29000000	          0.46382117	          2.61448759	         -1.16327994	
          5.30000000	          0.46299463	          2.66119740	         -1.15219154	
          5.31000000	          0.46571616	          2.70169561	         -1.13786742	
          5.32000000	          0.47186576	          2.73613211	         -1.12092047	
          5.33000000	          0.48136851	          2.76464380	         -1.10196374	
          5.34000000	          0.49415321	          2.78734925	         -1.08156303	
          5.35000000	          0.51010106	          2.80436042	         -1.06019865	
          5.36000000	          0.52899804	          2.81580034	         -1.03823989	
          5.37000000	          0.55050786	          2.82181712	         -1.01594065	
          5.38000000	          0.57417560	          2.82259680	         -0.99346251	
          5.39000000	          0.59945642	          2.81838156	         -0.97091942	
          5.40000000	          0.62575269	          2.80949281	         -0.94842736	
          5.41000000	          0.65244462	          2.79635384	         -0.92614404	
          5.42000000	          0.67890719	          2.77950916	         -0.90429239	
          5.43000000	          0.70451395	          2.75963842	         -0.88316838	
          5.44000000	          0.72863178	          2.73756403	         -0.86313422	
          5.45000000	          0.75062208	          2.71424727	         -0.84460794	
          5.46000000	          0.76984816	          2.69077203	         -0.82804724	
          5.47000000	          0.78569102	          2.66831505	         -0.81393195	
          5.48000000	          0.79757330	          2.64810502	         -0.80274970	
          5.49000000	          0.80497918	          2.63138349	         -0.79497743	
          5.50000000	          0.80747104	          2.61936886	         -0.79106505	
          5.51000000	          0.80470319	          2.61323618	         -0.79142111	
          5.52000000	          0.79643538	          2.61410802	         -0.79639961	
          5.53000000	          0.78256935	          2.62305044	         -0.80630313	
          5.54000000	          0.76314279	          2.64104445	         -0.82134936	
          5.55000000	          0.73824392	          2.66896003	         -0.84157444	
          5.56000000	          0.70812492	          2.70748465	         -0.86689320	
          5.57000000	          0.67320831	          2.75711752	         -0.89706450	
          5.58000000	          0.63412324	          2.81800279	         -0.93170115	
          5.59000000	          0.59173695	          2.88994117	         -0.97027077	
          5.60000000	          0.54711571	          2.97230200	         -1.01205635	
          5.61000000	          0.50148673	          3.06397019	         -1.05617318	
          5.62000000	          0.45616098	          3.16344103	         -1.10152545	
          5.63000000	          0.41249123	          3.26878669	         -1.14686584	
          5.64000000	          0.37179773	          3.37772050	         -1.19083859	
          5.65000000	          0.33528998	          3.48772183	         -1.23204084	
          5.66000000	          0.30398866	          3.59618178	         -1.26911981	
          5.67000000	          0.27865461	          3.70060745	         -1.30088403	
          5.68000000	          0.25973659	          3.79884710	         -1.32641691	
          5.69000000	          0.24733780	          3.88929115	         -1.34516325	
          5.70000000	          0.24122673	          3.97100237	         -1.35696289	
          5.71000000	          0.24089744	          4.04372587	         -1.36201464	
          5.72000000	          0.24564789	          4.10776966	         -1.36077263	
          5.73000000	          0.25467638	          4.16379838	         -1.35381742	
          5.74000000	          0.26717010	          4.21260063	         -1.34173349	
          5.75000000	          0.28236339	          4.25487609	         -1.32501613	
          5.76000000	          0.29957481	          4.29107479	         -1.30402655	
          5.77000000	          0.31822372	          4.32130562	         -1.27899192	
          5.78000000	          0.33783358	          4.34531275	         -1.25003880	
          5.79000000	          0.35801583	          4.36251563	         -1.21724100	
          5.80000000	          0.37844020	          4.37210360	         -1.18067137	
          5.81000000	          0.39880409	          4.37317691	         -1.14045196	
          5.82000000	          0.41880279	          4.36491831	         -1.09679696	
